<svg xmlns="http://www.w3.org/2000/svg" width="375.583" height="372.361" viewBox="0 0 375.583 372.361">
  <g id="no-data" transform="translate(-35 -25.969)">
    <g id="line" transform="translate(38.639 383.776)">
      <path id="Path_11425" data-name="Path 11425" d="M433.493,912.617H123.809a.809.809,0,0,1,0-1.617H433.493a.809.809,0,0,1,0,1.617Z" transform="translate(-91.061 -911)"/>
      <path id="Path_11426" data-name="Path 11426" d="M90.9,944.617H44.809a.809.809,0,0,1,0-1.617H90.9a.809.809,0,0,1,0,1.617Z" transform="translate(-44 -930.063)"/>
      <path id="Path_11427" data-name="Path 11427" d="M874.43,944.617H815.809a.809.809,0,0,1,0-1.617H874.43a.809.809,0,0,1,0,1.617Z" transform="translate(-503.294 -930.063)"/>
    </g>
    <g id="box" transform="translate(76.197 201.766)">
      <path id="Path_11428" data-name="Path 11428" d="M457.14,715.032h-198.1c-9.177-48.07-10.633-93.552,0-135.032h198.1Q476.242,638.217,457.14,715.032Z" transform="translate(-205.228 -531.809)" fill="#e0dff3"/>
      <path id="Path_11429" data-name="Path 11429" d="M456.761,714.745H257.69l-.081-.485c-9.945-52.193-9.945-96.422,0-135.315l.121-.445H456.761l.121.4a202.315,202.315,0,0,1,9.582,63.069c0,22.478-3.234,46.776-9.582,72.327Zm-198.1-1.213h197.13c12.492-50.5,12.492-95.493.04-133.819H258.66C248.876,618.161,248.876,661.945,258.66,713.532Z" transform="translate(-204.364 -530.915)" fill="#1d1e1b"/>
      <path id="Path_11430" data-name="Path 11430" d="M141.5,477.459s38.852,10.916,52.032,31.13l24.985-8.894s-4.407-19-38.529-37.194Z" transform="translate(-139.64 -461.813)" fill="#e0dff3"/>
      <path id="Path_11431" data-name="Path 11431" d="M190.549,508.3l-.243-.4c-12.9-19.81-51.3-30.766-51.668-30.888l-1.738-.485L177.369,460.8l.243.121c17.708,9.46,27.33,19.123,32.262,25.591,5.377,7.035,6.509,11.805,6.59,12.007l.121.526Zm-49.929-31.939c7.6,2.385,38.65,12.978,50.415,30.483l24.015-8.53c-1.011-3.153-7.681-20.012-37.8-36.143Z" transform="translate(-136.9 -460.8)" fill="#1d1e1b"/>
      <path id="Path_11432" data-name="Path 11432" d="M775.517,477.459s-38.852,10.916-52.032,31.13L698.5,499.694s4.407-19,38.529-37.194Z" transform="translate(-471.452 -461.813)" fill="#e0dff3"/>
      <path id="Path_11433" data-name="Path 11433" d="M722.655,508.363,696.7,499.146l.121-.526c.04-.2,1.172-4.973,6.59-12.007,4.932-6.469,14.514-16.131,32.262-25.591l.243-.121,40.469,15.727-1.738.485c-.4.121-38.771,11.077-51.668,30.888Zm-24.5-9.986,24.015,8.53c11.765-17.506,42.814-28.1,50.415-30.483L736,462.194C705.877,478.325,699.166,495.224,698.155,498.377Z" transform="translate(-470.38 -460.86)" fill="#1d1e1b"/>
      <path id="Path_11434" data-name="Path 11434" d="M270.5,564.586l25.066-8.086H443.535l25.066,8.086Z" transform="translate(-216.487 -517.81)" fill="#262261"/>
      <circle id="Ellipse_26" data-name="Ellipse 26" cx="4.245" cy="4.245" r="4.245" transform="translate(125.369 117.728)" fill="#262261"/>
      <circle id="Ellipse_27" data-name="Ellipse 27" cx="4.245" cy="4.245" r="4.245" transform="translate(147.605 117.728)" fill="#262261"/>
      <circle id="Ellipse_28" data-name="Ellipse 28" cx="4.245" cy="4.245" r="4.245" transform="translate(169.437 117.728)" fill="#262261"/>
      <path id="Path_11435" data-name="Path 11435" d="M728.224,717.916A2.243,2.243,0,0,1,726,715.693a1.888,1.888,0,0,1,.121-.687c11.765-35.294,11.158-63.594,8.571-81.1-2.79-18.84-8.369-29.432-8.409-29.553a2.222,2.222,0,0,1,.97-2.992,2.28,2.28,0,0,1,2.951.889c.243.445,5.983,11.4,8.894,31.009,2.668,17.991,3.315,47.019-8.733,83.162A2.276,2.276,0,0,1,728.224,717.916Z" transform="translate(-487.834 -544.396)" fill="#fff"/>
      <path id="Path_11436" data-name="Path 11436" d="M275.224,782.1a2.21,2.21,0,0,1-1.941-1.132c-11.482-20.942-8.894-74.51-8.773-76.774a2.227,2.227,0,1,1,4.447.243c-.04.526-2.668,54.579,8.207,74.429a2.216,2.216,0,0,1-.889,3.032A2.864,2.864,0,0,1,275.224,782.1Z" transform="translate(-212.721 -604.539)" fill="#fff"/>
    </g>
    <g id="woman" transform="translate(35 25.969)">
      <g id="woman-2" transform="translate(40.873 42.828)">
        <path id="Path_11437" data-name="Path 11437" d="M307.436,187.758s-13.058,6.509-15.727-3.881-8.126-32.747-24.338-30.079-18.031,5.62-23.732-4.447-46.816-8.813-39.216,22.721c12.452,51.708,105.2,46.7,105.2,46.7L311.8,206.8Z" transform="translate(-176.245 -138.962)" fill="#262261"/>
        <path id="Path_11438" data-name="Path 11438" d="M302.28,218.58a208.716,208.716,0,0,1-41.642-4.124c-14.433-3.032-26.481-7.641-35.779-13.705-11.684-7.6-19.042-17.506-21.953-29.473-1.658-6.913-1.132-12.856,1.536-17.667a21.5,21.5,0,0,1,11.158-9.218c10.35-4.083,24.3-2.183,27.613,3.719,4.407,7.8,6.064,7.479,15.363,5.62,2.183-.445,4.69-.93,7.722-1.455,16.576-2.709,22.236,19.446,24.945,30.119l.121.4a6.719,6.719,0,0,0,3.6,4.771c4.447,2.062,11.2-1.253,11.239-1.294l.687-.364,4.568,19.891-.04.121-2.264,12.452-.485.04C308.667,218.459,306.282,218.58,302.28,218.58Zm-74.712-75.157a31.906,31.906,0,0,0-11.482,2.1c-6.186,2.426-15.929,8.975-11.967,25.47,6.347,26.4,34.364,37.558,56.762,42.288a211.3,211.3,0,0,0,47.3,4l2.062-11.36-4.164-18.193c-1.941.849-7.439,2.87-11.6.97a7.851,7.851,0,0,1-4.285-5.579l-.121-.4c-2.628-10.309-8.086-31.777-23.57-29.23-3.032.485-5.5,1.011-7.681,1.455-9.3,1.86-11.805,2.385-16.657-6.186C240.424,145.566,234.44,143.423,227.567,143.423Z" transform="translate(-175.334 -138.048)"/>
        <path id="Path_11439" data-name="Path 11439" d="M338.247,444.723s-9.865-68.931,21.67-89.752c9.622-6.388,25.47,11.482,43.663,12.129,20.74.728,40.873-17.789,52.153-12.533,44.674,20.861,20.861,90.156,20.861,90.156Z" transform="translate(-255.651 -263.967)" fill="#faaf40"/>
        <path id="Path_11440" data-name="Path 11440" d="M476.015,444.395h-139.6l-.081-.687a194.232,194.232,0,0,1-1.011-37.235c.849-11.6,2.87-21.71,6.024-30.079,3.962-10.552,9.662-18.355,17.021-23.206,5.539-3.639,12.695-.04,20.942,4.164,6.994,3.558,14.878,7.56,23.206,7.843,10.067.364,20.093-3.962,28.947-7.762,9.379-4.043,17.465-7.52,23.53-4.69a44.317,44.317,0,0,1,22.519,23.287c3.639,8.45,5.377,18.638,5.134,30.362A140.364,140.364,0,0,1,476.3,443.91ZM337.83,442.778H474.883a137.044,137.044,0,0,0,6.1-36.507c.485-26.077-8.53-43.623-26.723-52.113-5.377-2.507-13.18.849-22.2,4.73s-19.244,8.247-29.634,7.884c-8.692-.323-16.737-4.407-23.853-8-7.8-3.962-14.554-7.4-19.325-4.245-16.01,10.592-20.983,34.162-22.276,52.032A190.241,190.241,0,0,0,337.83,442.778Z" transform="translate(-254.506 -262.831)" fill="#1d1d1b"/>
        <path id="Path_11441" data-name="Path 11441" d="M470.708,380.989s-8.49,2.062-2.426,8.53,14.554.809,14.554.809,9.3,5.256,15.767,0-1.617-10.228-1.617-10.228S490.114,385.4,470.708,380.989Z" transform="translate(-332.684 -279.757)" fill="#fff"/>
        <path id="Path_11442" data-name="Path 11442" d="M490.712,392.367a20.477,20.477,0,0,1-8.773-2.264c-1.658.97-9.339,4.932-15-1.092q-2.972-3.153-2.183-5.7c.849-2.83,4.771-3.8,4.932-3.841l.162-.04.121.04c18.921,4.285,25.713-.687,25.794-.728l.323-.243.364.2c.162.121,4.164,2.587,4.407,6.1.121,1.819-.809,3.558-2.709,5.094A11.617,11.617,0,0,1,490.712,392.367Zm-8.813-3.679.323.2c.081.04,9.016,4.973,15.08.04,1.617-1.294,2.385-2.668,2.264-4.083-.162-2.345-2.628-4.285-3.517-4.932-1.7,1.011-9.137,4.609-26.279.768-.647.2-3.356,1.092-3.922,2.992-.364,1.253.283,2.79,1.9,4.528,5.62,6.024,13.463.93,13.786.728Z" transform="translate(-331.786 -278.804)" fill="#1d1d1b"/>
        <path id="Path_11443" data-name="Path 11443" d="M485.83,343.352s1.617,12.533-2.83,18.193c0,0,8.894,6.873,19.81,0,0,0-6.873-14.15-4.851-18.193S485.83,343.352,485.83,343.352Z" transform="translate(-342.753 -256.796)" fill="#ffcdb2"/>
        <path id="Path_11444" data-name="Path 11444" d="M491.614,364.28a18.078,18.078,0,0,1-10.228-3.153l-.485-.364.364-.485c4.245-5.377,2.709-17.627,2.709-17.748l-.081-.526.485-.162c2.587-.728,11.158-2.992,12.775-1.011a1.555,1.555,0,0,1,.04,1.86c-1.536,3.113,2.992,13.786,4.851,17.667l.243.485-.445.283A18.524,18.524,0,0,1,491.614,364.28Zm-9.016-3.8a16.788,16.788,0,0,0,18.152-.081c-1.334-2.83-6.549-14.352-4.609-18.233.081-.162.2-.445.081-.566-.768-.93-6.186-.04-11.037,1.253C485.509,345.278,486.237,355.143,482.6,360.479Z" transform="translate(-341.502 -255.892)" fill="#1d1d1b"/>
        <path id="Path_11445" data-name="Path 11445" d="M451.211,148.155a.779.779,0,0,1-.768-.606c-2.709-10.592,7.8-15.525,7.924-15.565a.77.77,0,0,1,1.051.4.8.8,0,0,1-.4,1.051c-.4.162-9.379,4.407-7.035,13.665a.779.779,0,0,1-.566.97h0A.223.223,0,0,1,451.211,148.155Z" transform="translate(-323.092 -131.904)" fill="#1d1d1b"/>
        <circle id="Ellipse_29" data-name="Ellipse 29" cx="16.01" cy="16.01" r="16.01" transform="translate(131.272 3.839)" fill="#262261"/>
        <path id="Path_11446" data-name="Path 11446" d="M475.972,173.1h-.243a16.578,16.578,0,1,1,11.805-4.649A16.823,16.823,0,0,1,475.972,173.1Zm0-31.979a15.383,15.383,0,1,0-.2,30.766h.243a15.366,15.366,0,0,0,15.363-15.161h0a15.392,15.392,0,0,0-15.161-15.605Z" transform="translate(-328.69 -136.672)" fill="#1d1e1b"/>
        <path id="Path_11447" data-name="Path 11447" d="M460.392,185.144c-6.388-11.724-24.419-9.46-29.028-4.407-11.441,12.573-22.478,6.388-24.662,20.012-1.092,6.832,4.932,9.541,2.021,22.034-1.536,6.428,9.3,16.495,19.2,16.657s43.623,1.011,46.453-6.226,13.948-19.244,5.094-33.192C470.459,185.872,463.141,190.238,460.392,185.144Z" transform="translate(-297.222 -158.544)" fill="#262261"/>
        <path id="Path_11448" data-name="Path 11448" d="M436.823,239.215c-2.83,0-5.7-.04-8.45-.081H427c-6.954-.121-13.705-4.771-17.061-9.1-2.3-2.951-3.275-5.9-2.709-8.288,1.7-7.237.364-11.077-.849-14.433-.849-2.385-1.617-4.609-1.172-7.52,1.253-7.884,5.417-9.46,10.714-11.441,4.245-1.577,9.056-3.4,14.069-8.894,2.83-3.113,9.824-4.892,16.171-4.124,6.307.768,11.2,3.841,13.827,8.652h0c.93,1.738,2.466,2.224,4.609,2.951,3.679,1.213,8.733,2.911,14.433,11.846,7.2,11.32,1.658,21.306-2.426,28.624a50.231,50.231,0,0,0-2.587,5.094C471.875,238.083,454.369,239.215,436.823,239.215Zm6.307-62.867c-5.458,0-10.309,1.819-12.209,3.922-5.215,5.7-10.39,7.641-14.554,9.218-5.094,1.9-8.813,3.275-9.945,10.471-.4,2.628.283,4.649,1.092,6.954,1.253,3.517,2.668,7.56.889,15.12-.485,2.021.4,4.609,2.466,7.277,3.194,4.083,9.582,8.53,16.131,8.611h1.375c10.39.162,41.965.687,44.512-5.862a42.753,42.753,0,0,1,2.668-5.256c3.922-7.035,9.3-16.7,2.466-27.37-5.458-8.571-10.269-10.148-13.786-11.32-2.224-.728-4.124-1.375-5.3-3.517h0c-2.426-4.488-6.994-7.318-12.9-8.045A22.435,22.435,0,0,0,443.13,176.348Z" transform="translate(-296.333 -157.672)" fill="#1d1e1b"/>
        <path id="Path_11449" data-name="Path 11449" d="M481.358,261.84c-8.167,1.253-18.84-2.87-20.861-.121s-.809,6.711,3.477,7.924,8.652,1.294,17.587,1.092,17.667-1.051,16.9-5.862S493.405,259.98,481.358,261.84Z" transform="translate(-328.78 -208.638)" fill="#ffb49f"/>
        <path id="Path_11450" data-name="Path 11450" d="M467.026,205.3c-3.356,12.614-16.212,18.233-23.166,18.759-1.577,3.841-.889,9.056-.93,13.584-.243,16.657,8.652,28.866,24.661,27.977,15.605-.849,23.934-9.662,24.055-28.017,0-4.326.243-8.611-1.092-12.371C477.295,225.029,467.026,205.3,467.026,205.3Z" transform="translate(-318.814 -175.627)" fill="#ffcdb2"/>
        <path id="Path_11451" data-name="Path 11451" d="M465.144,263.8a22.163,22.163,0,0,1-15.767-5.983c-5.3-5.094-8.126-13.139-8-22.681,0-1.132,0-2.3-.04-3.477-.081-3.6-.2-7.358,1.051-10.35l.162-.364.364-.04c7.52-.566,19.527-6.63,22.64-18.314l.4-1.5.728,1.375c.121.2,10.269,19.406,23,19.648h.4l.121.4c1.213,3.4,1.172,7.277,1.132,11.037V235.1c-.04,9.177-2.183,16.212-6.347,20.983-4.083,4.649-10.228,7.2-18.274,7.641C466.2,263.765,465.67,263.8,465.144,263.8Zm-21.751-41.682c-1.011,2.709-.889,6.145-.809,9.5.04,1.172.081,2.385.04,3.517-.121,9.218,2.587,16.94,7.6,21.791,4.164,4,9.824,5.943,16.414,5.579,15.686-.849,23.368-9.784,23.449-27.411v-1.577c.04-3.639.081-7.115-.93-10.228-11.4-.566-20.376-14.595-22.923-19C462.395,216.1,450.509,221.436,443.393,222.123Z" transform="translate(-317.903 -173.125)" fill="#1d1d1b"/>
        <path id="Path_11452" data-name="Path 11452" d="M471.062,263.745c-9.743,1.617-22.519-3.234-24.9.121s-.93,8.045,4.245,9.42,10.35,1.455,20.983,1.132,21.023-1.455,20.093-7.2S485.373,261.359,471.062,263.745Z" transform="translate(-320.141 -209.572)" fill="#ffb49f"/>
        <path id="Path_11453" data-name="Path 11453" d="M500.906,281.412h0a.622.622,0,0,1-.606-.606h0l.2-13.1a.622.622,0,0,1,.606-.606h0a.622.622,0,0,1,.606.606h0l-.2,13.1A.621.621,0,0,1,500.906,281.412Z" transform="translate(-353.059 -212.442)"/>
        <path id="Path_11454" data-name="Path 11454" d="M471.849,156.633a1.2,1.2,0,0,1-.4-.081,1.02,1.02,0,0,1-.485-1.334,14.505,14.505,0,0,1,12.533-7.722.978.978,0,0,1,1.051.97,1,1,0,0,1-.97,1.051,12.546,12.546,0,0,0-10.794,6.59A1.106,1.106,0,0,1,471.849,156.633Z" transform="translate(-335.524 -141.191)" fill="#fff"/>
        <path id="Path_11455" data-name="Path 11455" d="M459.9,256.9a8.767,8.767,0,0,1-4.043-.97.616.616,0,0,1,.566-1.092c5.175,2.749,11.2-2.143,11.28-2.183a.6.6,0,0,1,.809.889l-.04.04C468.225,253.751,464.344,256.9,459.9,256.9Z" transform="translate(-326.401 -203.743)"/>
        <path id="Path_11456" data-name="Path 11456" d="M516.721,251.349a10.279,10.279,0,0,1-8.49-4.568.606.606,0,1,1,.97-.728c3.841,5.3,8.894,3.962,9.137,3.881a.579.579,0,0,1,.728.4.64.64,0,0,1-.4.768A5.234,5.234,0,0,1,516.721,251.349Z" transform="translate(-357.715 -199.763)"/>
        <path id="Path_11457" data-name="Path 11457" d="M248.724,436.557c-10.673-8.975-25.268-25.713-27.775-35.779s3.962-13.584,3.962-13.584l-3.4-7.075L243.1,363.3l3.275,4.164s10.228-3.113,15.2,5.054,10.39,19.285,13.948,23.61c13.22,16.131,13.624,36.345,5.539,48.07S254.222,441.166,248.724,436.557Z" transform="translate(-186.302 -269.749)" fill="#faaf40"/>
        <path id="Path_11458" data-name="Path 11458" d="M271.721,448.41c-8.369,0-18.638-7.56-24.217-12.25-9.662-8.167-25.268-25.268-27.977-36.062-2.183-8.733,2.264-12.856,3.76-13.948l-3.153-6.59a.618.618,0,0,1,.162-.728l21.589-16.818a.591.591,0,0,1,.849.121l3.032,3.841c2.021-.485,10.875-2.1,15.484,5.458,1.941,3.194,3.922,6.792,5.862,10.269,3.032,5.5,5.9,10.673,8.045,13.3,13.988,17.061,13.422,37.437,5.579,48.8a10.3,10.3,0,0,1-7.318,4.568C272.853,448.37,272.287,448.41,271.721,448.41Zm-50.293-68.971,3.194,6.63a.6.6,0,0,1-.243.809c-.243.121-6.024,3.477-3.679,12.937,2.547,10.107,17.667,27.087,27.613,35.456,5.458,4.609,15.444,11.967,23.408,11.967a10.357,10.357,0,0,0,1.577-.121,9.106,9.106,0,0,0,6.469-4.043c7.56-10.956,8.086-30.726-5.539-47.342-2.224-2.709-5.134-7.924-8.167-13.5-1.941-3.477-3.881-7.075-5.822-10.228-4.69-7.681-14.11-4.932-14.514-4.811a.575.575,0,0,1-.647-.2l-2.911-3.679Z" transform="translate(-185.446 -268.908)" fill="#1d1d1b"/>
        <path id="Path_11459" data-name="Path 11459" d="M228.415,388.07s17.1-3.356,20.457-19.365l-3.113-4.2L225.1,380.954Z" transform="translate(-189.118 -270.464)" fill="#faaf40"/>
        <circle id="Ellipse_30" data-name="Ellipse 30" cx="2.304" cy="2.304" r="2.304" transform="translate(87.407 143.197)" fill="#ffc140"/>
        <circle id="Ellipse_31" data-name="Ellipse 31" cx="2.304" cy="2.304" r="2.304" transform="translate(107.217 109.641)" fill="#ffc140"/>
        <circle id="Ellipse_32" data-name="Ellipse 32" cx="2.304" cy="2.304" r="2.304" transform="translate(150.071 132.281)" fill="#ffc140"/>
        <circle id="Ellipse_33" data-name="Ellipse 33" cx="2.304" cy="2.304" r="2.304" transform="translate(182.414 109.641)" fill="#ffc140"/>
        <circle id="Ellipse_34" data-name="Ellipse 34" cx="2.304" cy="2.304" r="2.304" transform="translate(182.414 160.986)" fill="#ffc140"/>
        <circle id="Ellipse_35" data-name="Ellipse 35" cx="2.304" cy="2.304" r="2.304" transform="translate(129.049 173.519)" fill="#ffc140"/>
        <circle id="Ellipse_36" data-name="Ellipse 36" cx="2.304" cy="2.304" r="2.304" transform="translate(125.006 139.963)" fill="#ffc140"/>
        <circle id="Ellipse_37" data-name="Ellipse 37" cx="2.304" cy="2.304" r="2.304" transform="translate(179.18 139.154)" fill="#ffc140"/>
        <circle id="Ellipse_38" data-name="Ellipse 38" cx="2.304" cy="2.304" r="2.304" transform="translate(63.958 149.261)" fill="#ffc140"/>
        <circle id="Ellipse_39" data-name="Ellipse 39" cx="2.304" cy="2.304" r="2.304" transform="translate(65.495 116.312)" fill="#ffc140"/>
        <path id="Path_11460" data-name="Path 11460" d="M139.1,327.511s-.889,22.681,33.111,22.155c0,0,18.4-1.092,23.651-11.684l-.768-2.143s9.218-11.563,4.164-18.84c0,0-9.582.162-15.767,13.463,0,0-10.552-12.978-26.238-7.237,0,0-7.762-1.5-9.056,2.83C148.193,326.1,143.827,323.388,139.1,327.511Z" transform="translate(-137.884 -242.168)" fill="#ffcdb2"/>
        <path id="Path_11461" data-name="Path 11461" d="M140.3,323.845a7.332,7.332,0,0,1,6.1.4,3.941,3.941,0,0,1,2.628-2.547,14.107,14.107,0,0,1,6.428-.283c15.686-5.741,26.238,7.237,26.238,7.237,3.841-8.288,8.975-11.482,12.331-12.695a10.912,10.912,0,0,1,3.4-.768c5.054,7.277-4.164,18.84-4.164,18.84l.768,2.143c-2.264,4.609-7.035,7.4-11.684,9.1a46.525,46.525,0,0,1-11.967,2.587c-34,.566-33.111-22.155-33.111-22.155a10.758,10.758,0,0,1,3.032-1.86m-.4-1.132a11.248,11.248,0,0,0-3.4,2.062,1.138,1.138,0,0,0-.4.849,21.226,21.226,0,0,0,6.1,14.595c5.943,6.064,15.4,9.016,28.179,8.813h.04a46.045,46.045,0,0,0,12.331-2.668c6.1-2.224,10.269-5.5,12.371-9.7a1.158,1.158,0,0,0,.04-.97l-.526-1.5c1.86-2.507,8.692-12.695,3.8-19.77a1.264,1.264,0,0,0-1.011-.526,12.338,12.338,0,0,0-3.8.849c-3.517,1.294-8.409,4.366-12.25,11.724a29.925,29.925,0,0,0-6.307-4.73,23.68,23.68,0,0,0-19.689-1.658,14.99,14.99,0,0,0-6.752.4,5.55,5.55,0,0,0-2.79,2.1,9.343,9.343,0,0,0-5.943.121Z" transform="translate(-136.1 -240.321)"/>
        <path id="Path_11462" data-name="Path 11462" d="M196.579,351.152h0a.667.667,0,0,1-.809-.4,4.661,4.661,0,0,0-2.587-2.507c-2.264-1.011-6.671-1.375-15,2.426a.633.633,0,0,1-.647-.081c-.081-.081-9.541-7.6-17.1-11.441a.6.6,0,0,1-.243-.809.591.591,0,0,1,.809-.243c6.913,3.517,15.322,10.026,17.02,11.32,6.873-3.073,12.169-3.841,15.727-2.224a6.02,6.02,0,0,1,3.234,3.234A.6.6,0,0,1,196.579,351.152Z" transform="translate(-150.41 -254.69)"/>
        <path id="Path_11463" data-name="Path 11463" d="M198.22,339.956a.629.629,0,0,1-.647-.162c-.04-.04-4.892-5.337-15-8.652a.64.64,0,0,1-.4-.768.622.622,0,0,1,.768-.4c10.431,3.436,15.322,8.773,15.525,9.016a.586.586,0,0,1-.04.849h0A.222.222,0,0,1,198.22,339.956Z" transform="translate(-163.532 -249.882)"/>
        <path id="Path_11464" data-name="Path 11464" d="M180.878,378.513l-.121.04c-12.9,2.264-23.61-7.115-24.055-7.52a.8.8,0,1,1,1.051-1.213h0c.121.081,10.592,9.258,22.681,7.115a.821.821,0,0,1,.445,1.577Z" transform="translate(-148.212 -273.521)" fill="#fff"/>
        <path id="Path_11465" data-name="Path 11465" d="M675.9,421.791c10.673-8.975,22.64-28.947,25.147-39.014s-3.962-13.584-3.962-13.584l3.4-7.075L678.934,345.3l-3.275,4.164s-10.228-3.113-15.2,5.054-10.39,19.285-13.948,23.61c-13.261,16.131-8.611,45.644-.526,57.368S670.4,426.4,675.9,421.791Z" transform="translate(-435.189 -259.027)" fill="#faaf40"/>
        <path id="Path_11466" data-name="Path 11466" d="M651.2,438.777a4.394,4.394,0,0,1-.728-.04,8.044,8.044,0,0,1-5.943-3.76c-4.326-6.307-7.358-16.778-7.843-27.33-.606-12.533,2.385-23.449,8.369-30.726,2.143-2.628,5.013-7.8,8.045-13.3,1.941-3.477,3.922-7.075,5.862-10.269,4.609-7.56,13.463-5.9,15.484-5.458l3.032-3.841a.627.627,0,0,1,.849-.121l21.548,16.818a.567.567,0,0,1,.162.728l-3.153,6.59c1.536,1.132,5.983,5.256,3.76,13.948-2.587,10.269-14.8,30.4-25.349,39.3l-.4-.485.4.485c-.97.809-2.264,2.143-3.8,3.679C666.119,430.57,657.992,438.777,651.2,438.777Zm19-90.2a11.3,11.3,0,0,0-10.148,5.377c-1.941,3.153-3.922,6.752-5.822,10.228-3.073,5.539-5.943,10.754-8.167,13.5-5.822,7.075-8.692,17.708-8.126,29.917.485,10.188,3.477,20.7,7.641,26.723a6.607,6.607,0,0,0,5.054,3.234c.2,0,.4.04.606.04,6.266,0,14.191-8,19.487-13.382,1.536-1.577,2.911-2.911,3.881-3.76,10.431-8.773,22.438-28.583,24.985-38.69,2.385-9.42-3.436-12.775-3.679-12.937a.6.6,0,0,1-.243-.809l3.194-6.63-20.7-16.131-2.911,3.719a.575.575,0,0,1-.647.2,16.768,16.768,0,0,0-4.407-.606Z" transform="translate(-434.26 -258.143)" fill="#1d1d1b"/>
        <path id="Path_11467" data-name="Path 11467" d="M752.057,370.07s-17.1-3.356-20.457-19.365l3.113-4.2,20.7,16.454Z" transform="translate(-490.847 -259.741)" fill="#faaf40"/>
        <circle id="Ellipse_40" data-name="Ellipse 40" cx="2.304" cy="2.304" r="2.304" transform="translate(208.491 135.92)" fill="#ffc140"/>
        <circle id="Ellipse_41" data-name="Ellipse 41" cx="2.304" cy="2.304" r="2.304" transform="translate(231.94 141.984)" fill="#ffc140"/>
        <circle id="Ellipse_42" data-name="Ellipse 42" cx="2.304" cy="2.304" r="2.304" transform="translate(230.403 109.035)" fill="#ffc140"/>
        <path id="Path_11468" data-name="Path 11468" d="M789.827,306.871s.889,22.681-33.111,22.155c0,0-18.4-1.092-23.651-11.684l.768-2.1s-9.218-11.563-4.164-18.84c0,0,9.582.162,15.767,13.463,0,0,10.511-12.978,26.238-7.237,0,0,7.762-1.5,9.056,2.83C780.731,305.456,785.1,302.707,789.827,306.871Z" transform="translate(-488.795 -229.896)" fill="#ffcdb2"/>
        <path id="Path_11469" data-name="Path 11469" d="M785,303.205a9.9,9.9,0,0,1,2.992,1.819s.889,22.681-33.111,22.155a46.525,46.525,0,0,1-11.967-2.587c-4.649-1.7-9.42-4.488-11.684-9.1l.768-2.1s-9.218-11.563-4.164-18.84a10.911,10.911,0,0,1,3.4.768c3.356,1.213,8.49,4.407,12.331,12.695,0,0,10.511-12.978,26.238-7.237a14.107,14.107,0,0,1,6.428.283,3.941,3.941,0,0,1,2.628,2.547,7.425,7.425,0,0,1,6.145-.4m.4-1.172a8.585,8.585,0,0,0-5.943-.04,5.55,5.55,0,0,0-2.79-2.1,14.99,14.99,0,0,0-6.752-.4,23.506,23.506,0,0,0-19.689,1.658,30.167,30.167,0,0,0-6.347,4.73c-3.841-7.358-8.733-10.431-12.25-11.724a12.34,12.34,0,0,0-3.8-.849,1.264,1.264,0,0,0-1.011.526c-4.932,7.075,1.941,17.263,3.8,19.77l-.566,1.5a1.343,1.343,0,0,0,.04.97c2.1,4.2,6.226,7.479,12.331,9.7a47.6,47.6,0,0,0,12.331,2.628h.04c12.775.2,22.236-2.749,28.179-8.854a21.393,21.393,0,0,0,6.186-14.554,1.138,1.138,0,0,0-.4-.849,10.7,10.7,0,0,0-3.356-2.1Z" transform="translate(-486.959 -228.05)"/>
        <path id="Path_11470" data-name="Path 11470" d="M768.874,330.352h0a.667.667,0,0,0,.809-.4,4.66,4.66,0,0,1,2.587-2.507c2.264-1.011,6.671-1.375,15,2.426a.633.633,0,0,0,.647-.081c.081-.081,9.541-7.6,17.1-11.441a.6.6,0,0,0,.243-.809.591.591,0,0,0-.809-.243c-6.913,3.517-15.363,10.026-17.021,11.32-6.873-3.073-12.169-3.841-15.727-2.224a6.02,6.02,0,0,0-3.234,3.234A.579.579,0,0,0,768.874,330.352Z" transform="translate(-512.798 -242.3)"/>
        <path id="Path_11471" data-name="Path 11471" d="M797.3,319.26a.629.629,0,0,0,.647-.162c.04-.04,4.932-5.337,15-8.652a.6.6,0,0,0-.283-1.172c-.04,0-.081,0-.081.04-10.431,3.436-15.323,8.773-15.525,9.016a.586.586,0,0,0,.04.849h0A.682.682,0,0,1,797.3,319.26Z" transform="translate(-529.745 -237.555)"/>
        <path id="Path_11472" data-name="Path 11472" d="M802.159,357.813c.04,0,.081.04.121.04,12.9,2.264,23.61-7.115,24.055-7.52a.8.8,0,1,0-1.051-1.213c-.121.081-10.592,9.258-22.68,7.115a.826.826,0,0,0-.445,1.577Z" transform="translate(-532.58 -261.19)" fill="#fff"/>
        <path id="Path_11473" data-name="Path 11473" d="M483.85,326.948h-.081a.6.6,0,0,1-.526-.687c.162-1.5-.081-2.547-.809-3.073-1.455-1.051-4.568-.04-5.62.445a.623.623,0,0,1-.809-.323.591.591,0,0,1,.323-.809c.2-.081,4.528-2.021,6.832-.323,1.092.809,1.536,2.183,1.294,4.164A.621.621,0,0,1,483.85,326.948Z" transform="translate(-338.549 -244.838)"/>
        <circle id="Ellipse_43" data-name="Ellipse 43" cx="1.617" cy="1.617" r="1.617" transform="translate(133.981 59.671)"/>
        <circle id="Ellipse_44" data-name="Ellipse 44" cx="1.617" cy="1.617" r="1.617" transform="translate(159.653 59.873)"/>
      </g>
      <path id="Path_11474" data-name="Path 11474" d="M196.26,112.7a.688.688,0,0,1-.283-.04c-10.471-4.043-19.851-11.077-27.936-20.9A114.14,114.14,0,0,1,151.3,63.1a163.006,163.006,0,0,1-10.309-36.184.849.849,0,0,1,.687-.93.817.817,0,0,1,.93.687A164.047,164.047,0,0,0,152.8,62.529c7.2,17.263,20.619,39.741,43.744,48.636a.825.825,0,0,1,.485,1.051.793.793,0,0,1-.768.485Z" transform="translate(-98.14 -25.969)"/>
      <path id="Path_11475" data-name="Path 11475" d="M170.454,186.875h-.081c-10.148-1.092-19.972-7.237-28.421-17.789a79.741,79.741,0,0,1-9.743-15.727.8.8,0,0,1,1.455-.647c.121.323,13.341,30.039,36.871,32.545a.81.81,0,0,1-.081,1.617Z" transform="translate(-92.872 -101.194)"/>
      <path id="Path_11476" data-name="Path 11476" d="M35.809,323.148a.811.811,0,0,1-.809-.809.777.777,0,0,1,.162-.485c5.983-8.207,16.657-11.522,30.928-9.622a85.546,85.546,0,0,1,19.77,5.3.8.8,0,0,1-.647,1.455c-.364-.162-35.133-14.878-48.757,3.76A.735.735,0,0,1,35.809,323.148Z" transform="translate(-35 -196.189)"/>
      <path id="Path_11477" data-name="Path 11477" d="M129.742,288a.727.727,0,0,1-.606-.283h0c-.121-.121-10.148-10.956-31.251-8.611a.813.813,0,0,1-.162-1.617c21.993-2.426,32.222,8.692,32.626,9.177a.818.818,0,0,1-.04,1.132A.966.966,0,0,1,129.742,288Z" transform="translate(-71.929 -175.598)"/>
      <path id="Path_11478" data-name="Path 11478" d="M682.117,476.982a1.622,1.622,0,0,1-1.617-1.617,1.687,1.687,0,0,1,.728-1.375c38.933-24.945,33.354-45.28,33.273-45.482a1.661,1.661,0,0,1,1.092-2.021,1.628,1.628,0,0,1,2.021,1.092c.081.243,1.738,6.024-1.86,15-4.69,11.724-15.727,23.206-32.747,34.122A1.455,1.455,0,0,1,682.117,476.982Z" transform="translate(-419.533 -264.516)" fill="#fff"/>
      <path id="Path_11479" data-name="Path 11479" d="M880.378,299.572a.892.892,0,0,1-.606-.243c-6.347-6.671-14.756-9.5-24.985-8.409a45.709,45.709,0,0,0-13.665,3.719.8.8,0,0,1-.809-1.375c.04,0,.081-.04.121-.04a46.6,46.6,0,0,1,14.15-3.881c10.633-1.172,19.77,1.941,26.4,8.894a.782.782,0,0,1-.04,1.132A1.073,1.073,0,0,1,880.378,299.572Z" transform="translate(-514.498 -182.721)"/>
      <path id="Path_11480" data-name="Path 11480" d="M791.809,270.776a.811.811,0,0,1-.809-.809.608.608,0,0,1,.162-.445,32.824,32.824,0,0,1,10.067-8.733c6.145-3.6,16.374-7.115,30.4-3.719a.809.809,0,0,1-.364,1.577c-13.5-3.275-23.287.121-29.149,3.517a33.549,33.549,0,0,0-9.622,8.288A.864.864,0,0,1,791.809,270.776Z" transform="translate(-485.359 -162.819)"/>
    </g>
  </g>
</svg>
